<svg id="eVZjgtNuvE01" xmlns="http://www.w3.org/2000/svg" xmlns:xlink="http://www.w3.org/1999/xlink" viewBox="0 0 225 300" shape-rendering="geometricPrecision" text-rendering="geometricPrecision"><g id="eVZjgtNuvE02" transform="matrix(1 0 0 1 0 -6)"><path id="eVZjgtNuvE03" d="M178.586987,156.827702L170.544541,150.125663C170.544541,45.133243,311.182150,59.897540,319.329800,92.488140C327.541810,125.336200,285.713260,169.270790,257.671050,180.955050C244.504140,186.441260,232.530050,195.601510,218.799230,199.720760C216.617060,200.375410,170.544541,219.424299,170.544541,217.146049C170.544541,209.579779,326.072140,152.887070,343.457140,187.657090C374.898490,250.539790,219.813910,335.527850,185.289030,309.634190C168.889600,297.334620,198.620060,270.689310,185.289030,257.358280" transform="matrix(1 0 0 1 -145.87919746500006 -36.22126846000003)" fill="none" stroke="rgb(84,111,165)" stroke-width="15" stroke-linecap="round" stroke-linejoin="round"/></g><g id="eVZjgtNuvE04" transform="matrix(1 0 0 1 -59.02490596999974 0.89760359000030)"><path id="eVZjgtNuvE05" d="M0,-95.839151L0,99.615394" transform="matrix(1.09581416790092 0.09587131702242 -0.09587131702242 1.09581416790092 137.19439196500068 146.12429592000007)" fill="none" stroke="rgb(63,87,135)" stroke-width="19" stroke-linecap="round" stroke-linejoin="round"/><path id="eVZjgtNuvE06" d="M178.586987,156.827702L170.544541,150.125663C170.544541,45.133243,311.182150,59.897540,319.329800,92.488140C327.541810,125.336200,285.713260,169.270790,257.671050,180.955050C244.504140,186.441260,232.530050,195.601510,218.799230,199.720760C216.617060,200.375410,170.544541,219.424299,170.544541,217.146049C170.544541,209.579779,326.072140,152.887070,343.457140,187.657090C374.898490,250.539790,219.813910,335.527850,185.289030,309.634190C168.889600,297.334620,198.620060,270.689310,185.289030,257.358280" transform="matrix(1.10000000000000 0 0 1.10000000000000 -112.75915984149947 -61.99791945049998)" fill="none" stroke="rgb(63,87,135)" stroke-width="15" stroke-linecap="round" stroke-linejoin="round"/></g></svg>